# Created by Kenney (www.kenney.nl)

mtllib Cross.mtl

g mergedBlocks

v -0.212132 0 -1.490116E-08
v 1.490116E-08 9.023893E-17 -0.212132
v -0.4596194 0 -0.2474874
v -0.2474873 9.023893E-17 -0.4596194
v 0.2474874 9.023893E-17 -0.4596194
v -0.4596194 0 0.2474873
v 0.4596194 0 -0.2474873
v 0.212132 0 1.490116E-08
v -1.490116E-08 -9.023893E-17 0.212132
v -0.2474874 -9.023893E-17 0.4596194
v 0.4596194 0 0.2474874
v 0.2474873 -9.023893E-17 0.4596194
v -0.2474873 1 -0.4596194
v -0.4596194 1 -0.2474874
v 0.4596194 1 -0.2474873
v 0.2474874 1 -0.4596194
v -0.2474874 1 0.4596194
v -0.4596194 1 0.2474873
v 0.4596194 1 0.2474874
v 0.2474873 1 0.4596194
v 1.490116E-08 1 -0.212132
v -0.212132 1 -1.490116E-08
v -1.490116E-08 1 0.212132
v 0.212132 1 1.490116E-08

vn 0 -1 0
vn -0.7071067 0 -0.7071068
vn 0.7071068 0 -0.7071067
vn -0.7071068 0 0.7071067
vn 0.7071067 0 0.7071068
vn 0 1 0

vt 0.212132 1.788139E-08
vt -1.788139E-08 0.212132
vt 0.4596194 0.2474874
vt 0.2474873 0.4596194
vt 1.788139E-08 9.023893E-17
vt -0.212132 0
vt 0.2474874 9.023893E-17
vt -0.4596194 0
vt -0.2474874 0.4596194
vt 0.4596194 -0.2474873
vt -0.4596194 0.2474873
vt -0.212132 -1.788139E-08
vt 1.788139E-08 -0.212132
vt 0.2474874 -0.4596194
vt -0.4596194 -0.2474874
vt -0.2474873 -0.4596194
vt 0.2474873 9.023893E-17
vt 0.2474873 1
vt 0.4596194 0
vt 0.4596194 1
vt 0.2474873 0
vt 0.4596194 9.023893E-17
vt 0.4596194 -9.023893E-17
vt 0.2474873 -9.023893E-17
vt -1.788139E-08 -0.212132
vt 0.212132 -1.788139E-08
vt 0.2474873 -0.4596194
vt 0.4596194 -0.2474874
vt -0.212132 1
vt 1.788139E-08 1
vt -0.4596194 1
vt 0.2474874 1
vt 0.4596194 0.2474873
vt -0.2474874 -0.4596194
vt 0.2474874 0.4596194
vt 1.788139E-08 0.212132
vt -0.212132 1.788139E-08
vt -0.4596194 -0.2474873
vt -0.4596194 0.2474874
vt -0.2474873 0.4596194
vt 0.212132 0
vt 0.212132 1
vt 0.4596194 0
vt 0.4596194 1
vt -1.788139E-08 0
vt -0.2474874 0
vt -1.788139E-08 1
vt -0.2474874 1
vt 0.4596194 -9.023893E-17
vt 0.212132 -9.023893E-17
vt -1.788139E-08 -9.023893E-17
vt -0.2474874 -9.023893E-17
vt 0.4596194 9.023893E-17
vt 0.212132 9.023893E-17
vt -0.2474874 9.023893E-17
vt -1.788139E-08 9.023893E-17

usemtl _defaultMat(Clone)

f 3/3/1 2/2/1 1/1/1
f 2/2/1 3/3/1 4/4/1
f 5/7/1 1/6/1 2/5/1
f 5/7/1 6/8/1 1/6/1
f 7/11/1 6/10/1 5/9/1
f 8/12/1 6/10/1 7/11/1
f 9/13/1 6/10/1 8/12/1
f 6/10/1 9/13/1 10/14/1
f 11/15/1 9/13/1 8/12/1
f 9/13/1 11/15/1 12/16/1
f 3/19/2 13/18/2 4/17/2
f 13/18/2 3/19/2 14/20/2
f 5/22/3 15/18/3 7/21/3
f 15/18/3 5/22/3 16/20/3
f 17/20/4 6/21/4 10/23/4
f 6/21/4 17/20/4 18/18/4
f 20/18/5 11/19/5 19/20/5
f 11/19/5 20/18/5 12/24/5
f 13/27/6 22/26/6 21/25/6
f 22/26/6 13/27/6 14/28/6
f 18/31/6 21/30/6 22/29/6
f 18/31/6 16/32/6 21/30/6
f 17/35/6 16/34/6 18/33/6
f 23/36/6 16/34/6 17/35/6
f 24/37/6 16/34/6 23/36/6
f 16/34/6 24/37/6 15/38/6
f 23/36/6 19/39/6 24/37/6
f 19/39/6 23/36/6 20/40/6
f 6/43/2 22/42/2 1/41/2
f 22/42/2 6/43/2 18/44/2
f 22/47/4 3/46/4 1/45/4
f 3/46/4 22/47/4 14/48/4
f 20/44/4 9/50/4 12/49/4
f 9/50/4 20/44/4 23/42/4
f 17/48/5 9/51/5 23/47/5
f 9/51/5 17/48/5 10/52/5
f 24/42/5 7/43/5 15/44/5
f 7/43/5 24/42/5 8/41/5
f 24/47/3 11/46/3 8/45/3
f 11/46/3 24/47/3 19/48/3
f 13/44/3 2/54/3 4/53/3
f 2/54/3 13/44/3 21/42/3
f 2/56/2 16/48/2 5/55/2
f 16/48/2 2/56/2 21/47/2

