# Created by Kenney (www.kenney.nl)

mtllib Triangle.mtl

g mergedBlocks

v 0.5 0 0.5
v 0 0 -0.5
v -0.5 0 0.5
v 0.5 1 0.5
v -0.5 1 0.5
v 0 1 -0.5

vn 0 -1 0
vn 0 0 1
vn 0 1 0
vn 0.8944272 0 -0.4472136
vn -0.8944272 0 -0.4472136

vt -0.5 -0.5
vt 0 0.5
vt 0.5 -0.5
vt 0.5 0
vt -0.5 0
vt 0.5 1
vt -0.5 1
vt 0 -0.5
vt -0.5 0.5
vt 0.5 0.5

usemtl _defaultMat(Clone)

f 3/3/1 2/2/1 1/1/1
f 4/6/2 3/5/2 1/4/2
f 3/5/2 4/6/2 5/7/2
f 5/10/3 4/9/3 6/8/3
f 4/7/4 2/4/4 6/6/4
f 2/4/4 4/7/4 1/5/4
f 3/4/5 6/7/5 2/5/5
f 6/7/5 3/4/5 5/6/5

